<?xml version="1.0" encoding="UTF-8"?>
<!DOCTYPE svg PUBLIC "-//W3C//DTD SVG 1.1//EN" "http://www.w3.org/Graphics/SVG/1.1/DTD/svg11.dtd">
<!-- Creator: CorelDRAW 2020 (64 Bit) -->
<svg xmlns="http://www.w3.org/2000/svg" xml:space="preserve" width="25.3998mm" height="9.3132mm" version="1.1" style="shape-rendering:geometricPrecision; text-rendering:geometricPrecision; image-rendering:optimizeQuality; fill-rule:evenodd; clip-rule:evenodd"
viewBox="0 0 2539.98 931.32"
 xmlns:xlink="http://www.w3.org/1999/xlink"
 xmlns:xodm="http://www.corel.com/coreldraw/odm/2003">
 <defs>
  <style type="text/css">
   <![CDATA[
    .fil1 {fill:#105F88}
    .fil0 {fill:#E6E6E6}
   ]]>
  </style>
 </defs>
 <g id="Camada_x0020_1">
  <metadata id="CorelCorpID_0Corel-Layer"/>
  <g id="_1087788736">
   <path class="fil0" d="M109.08 91.06l2430.9 0 0 840.27 -2389.12 0c-22.98,0 -41.78,-18.8 -41.78,-41.78l0 -798.49z"/>
   <path class="fil1" d="M34.83 3.66c-34.85,9.54 -33.94,36.39 -33.83,74.85 0.17,57.36 -3.5,311.01 2.21,331.74 10.48,38.07 47.79,33.9 71.68,33.82 54.82,-0.18 297.22,3.66 317.03,-2.33 12.56,-3.81 22.43,-13.87 27.29,-24.05 11.8,-24.75 4.33,-377.03 2.77,-382.65 -9.68,-34.94 -36.73,-33.96 -71.63,-33.85 -57.7,0.18 -291.68,-4.05 -315.52,2.47z"/>
   <path class="fil1" d="M109.08 758.49l2430.9 0 0 172.84 -2380.63 0c-27.65,0 -50.27,-22.62 -50.27,-50.27l0 -122.57z"/>
  </g>
 </g>
</svg>
